<svg width="18" height="18" viewBox="0 0 18 18" fill="none" xmlns="http://www.w3.org/2000/svg">
<path d="M13.6696 16.6026C13.7456 16.6786 13.8059 16.7688 13.8471 16.8681C13.8882 16.9675 13.9094 17.0739 13.9094 17.1814C13.9094 17.2889 13.8882 17.3953 13.8471 17.4947C13.8059 17.594 13.7456 17.6842 13.6696 17.7602C13.5936 17.8363 13.5034 17.8965 13.4041 17.9377C13.3047 17.9788 13.1983 18 13.0908 18C12.9833 18 12.8769 17.9788 12.7775 17.9377C12.6782 17.8965 12.588 17.8363 12.512 17.7602L4.33056 9.57883C4.25449 9.50285 4.19414 9.41262 4.15297 9.3133C4.1118 9.21398 4.09061 9.10752 4.09061 9C4.09061 8.89248 4.1118 8.78602 4.15297 8.6867C4.19414 8.58738 4.25449 8.49715 4.33056 8.42116L12.512 0.239761C12.6655 0.0862446 12.8737 -4.27966e-09 13.0908 0C13.3079 4.27966e-09 13.5161 0.0862446 13.6696 0.239761C13.8231 0.393277 13.9094 0.60149 13.9094 0.818595C13.9094 1.0357 13.8231 1.24391 13.6696 1.39743L6.06604 9L13.6696 16.6026Z" fill="currentColor"/>
</svg>
