<svg width="32" height="32" viewBox="0 0 32 32" fill="none" xmlns="http://www.w3.org/2000/svg">
<path d="M25.5919 16C25.5919 21.2974 21.2974 25.592 15.9999 25.592C10.7024 25.592 6.40796 21.2974 6.40796 16C6.40796 10.7025 10.7024 6.40805 15.9999 6.40805C21.2974 6.40805 25.5919 10.7025 25.5919 16Z" fill="currentColor"/>
<path fill-rule="evenodd" clip-rule="evenodd" d="M16 0C16.6165 0 17.1163 0.49978 17.1163 1.11628V4.09302C17.1163 4.70952 16.6165 5.2093 16 5.2093C15.3835 5.2093 14.8837 4.70952 14.8837 4.09302V1.11628C14.8837 0.49978 15.3835 0 16 0ZM3.59985 3.67046C4.01585 3.21546 4.72193 3.18385 5.17693 3.59985L8.48411 6.62361C8.9391 7.03961 8.97072 7.74568 8.55472 8.20068C8.13872 8.65567 7.43263 8.68729 6.97764 8.27129L3.67046 5.24754C3.21546 4.83154 3.18385 4.12545 3.59985 3.67046ZM28.4002 3.67046C28.8162 4.12545 28.7845 4.83154 28.3295 5.24754L25.0224 8.27129C24.5674 8.68729 23.8613 8.65567 23.4453 8.20068C23.0293 7.74568 23.0608 7.03961 23.5158 6.62361L26.8231 3.59985C27.2781 3.18385 27.9841 3.21546 28.4002 3.67046ZM0 16C0 15.3835 0.49978 14.8837 1.11628 14.8837H4.09302C4.70952 14.8837 5.2093 15.3835 5.2093 16C5.2093 16.6165 4.70952 17.1163 4.09302 17.1163H1.11628C0.49978 17.1163 0 16.6165 0 16ZM26.7907 16C26.7907 15.3835 27.2905 14.8837 27.907 14.8837H30.8837C31.5002 14.8837 32 15.3835 32 16C32 16.6165 31.5002 17.1163 30.8837 17.1163H27.907C27.2905 17.1163 26.7907 16.6165 26.7907 16ZM23.4798 23.4794C23.9158 23.0434 24.6226 23.0434 25.0585 23.4794L28.3657 26.787C28.8016 27.2229 28.8015 27.9297 28.3655 28.3657C27.9296 28.8016 27.2228 28.8015 26.787 28.3655L23.4798 25.0579C23.0439 24.622 23.0439 23.9153 23.4798 23.4794ZM8.52044 23.4795C8.95637 23.9155 8.95637 24.6223 8.52044 25.0582L5.21293 28.3657C4.777 28.8016 4.07022 28.8016 3.63428 28.3657C3.19835 27.9297 3.19835 27.2229 3.63428 26.7871L6.94178 23.4795C7.37771 23.0436 8.08449 23.0436 8.52044 23.4795ZM16 26.7907C16.6165 26.7907 17.1163 27.2905 17.1163 27.907V30.8837C17.1163 31.5002 16.6165 32 16 32C15.3835 32 14.8837 31.5002 14.8837 30.8837V27.907C14.8837 27.2905 15.3835 26.7907 16 26.7907Z" fill="currentColor"/>
</svg>
